<svg width="29" height="42" viewBox="0 0 29 42" fill="none" xmlns="http://www.w3.org/2000/svg">
<path d="M28.3647 36.2109V42H0.922363V37.0459L14.0869 22.8237C15.46 21.2651 16.5454 19.9106 17.3433 18.7603C18.1411 17.6099 18.707 16.5708 19.041 15.6431C19.3936 14.6968 19.5698 13.7969 19.5698 12.9434C19.5698 11.7002 19.3472 10.6147 18.9019 9.68701C18.4565 8.74072 17.8071 8.00781 16.9536 7.48828C16.1187 6.96875 15.0889 6.70898 13.8643 6.70898C12.5098 6.70898 11.3501 7.02441 10.3853 7.65527C9.43896 8.26758 8.71533 9.12109 8.21436 10.2158C7.73193 11.3105 7.49072 12.563 7.49072 13.9731H0.115234C0.115234 11.5796 0.671875 9.39941 1.78516 7.43262C2.89844 5.44727 4.49414 3.86084 6.57227 2.67334C8.65039 1.48584 11.1182 0.89209 13.9756 0.89209C16.7588 0.89209 19.1152 1.35596 21.0449 2.28369C22.9746 3.19287 24.4404 4.4917 25.4424 6.18018C26.4443 7.86865 26.9453 9.88184 26.9453 12.2197C26.9453 13.5186 26.7319 14.7988 26.3052 16.0605C25.8784 17.3223 25.2754 18.5747 24.4961 19.8179C23.7354 21.0425 22.8262 22.2856 21.7686 23.5474C20.7109 24.8091 19.5327 26.0986 18.2339 27.416L10.3296 36.2109H28.3647Z" fill="#28A745"/>
</svg>
