<svg width="215" height="41" viewBox="0 0 215 41" fill="none" xmlns="http://www.w3.org/2000/svg">
<g filter="url(#filter0_d_5107_4)">
<path d="M64.7812 5.80001H55.166V0.144043H81.2914V5.80001H71.7071V32.4602H64.7812V5.80001Z" fill="white"/>
<path d="M81.954 15.0757C81.954 12.3454 81.954 10.119 81.8975 8.15484H88.4172C88.5149 8.8027 88.5921 11.0394 88.5921 12.4225C89.6204 9.78992 92.1142 7.6458 96.3047 7.63037V14.0576C91.3943 13.9393 88.5921 15.3276 88.5921 21.7703V32.4549H81.954V15.0757Z" fill="white"/>
<path d="M119.52 26.1768C119.514 28.2757 119.624 30.3733 119.849 32.4601H113.592C113.384 31.6458 113.267 30.8113 113.242 29.9714C112.337 31.4574 110.558 32.9948 106.419 32.9948C100.526 32.9948 98.125 29.1642 98.125 25.4158C98.125 20.1095 102.285 17.3432 109.673 17.3432H113.021V15.8007C113.021 14.0216 112.399 12.3557 109.329 12.3557C106.491 12.3557 105.858 13.6103 105.565 15.3739H99.2099C99.5544 11.1525 102.151 7.57897 109.555 7.60982C115.91 7.64581 119.52 10.0727 119.52 15.9087V26.1768ZM113.067 21.4309H110.306C106.192 21.4309 104.825 22.7729 104.825 24.9736C104.825 26.7116 105.889 28.1821 108.306 28.1821C112.491 28.1821 113.093 25.2976 113.093 22.0428L113.067 21.4309Z" fill="white"/>
<path d="M144.591 24.4801C143.779 28.6964 140.889 33 133.727 33C126.189 33 122.379 27.8891 122.379 20.4541C122.379 13.1733 126.734 7.59961 134.066 7.59961C142.211 7.59961 144.458 13.4458 144.591 16.3406H138.072C137.691 14.3199 136.591 12.8082 133.958 12.8082C130.827 12.8082 129.166 15.5797 129.166 20.2433C129.166 25.5187 130.981 27.8634 133.912 27.8634C136.313 27.8634 137.48 26.4083 138.066 24.4904L144.591 24.4801Z" fill="white"/>
<path d="M154.057 18.3869C155.836 16.0062 159.05 12.1551 162.284 8.15475H169.904C169.431 8.72548 162.032 16.7724 161.518 17.41C162.063 18.2892 170.125 31.5139 170.686 32.4805H163.133C162.809 31.8738 157.43 22.3461 157.091 21.7085C157.091 21.7342 154.078 24.6856 154.057 24.7113V32.4805H147.373V0.128418H154.057V18.3869Z" fill="white"/>
<path d="M177.093 21.7498C177.093 24.7783 178.543 27.7862 181.946 27.7862C184.764 27.7862 185.587 26.5265 186.168 25.1331H192.811C191.885 28.321 189.212 33 181.766 33C173.812 33 170.388 27.1486 170.388 20.598C170.388 13.2915 174.121 7.60986 182.013 7.60986C190.322 7.60986 193.089 13.6052 193.089 19.7136C193.101 20.4003 193.072 21.0871 193.001 21.7703L177.093 21.7498ZM186.451 17.6106C186.394 14.7981 185.268 12.4174 181.988 12.4174C178.707 12.4174 177.463 14.7827 177.226 17.6106H186.451Z" fill="white"/>
<path d="M195.844 15.0757C195.844 12.3454 195.844 10.119 195.793 8.15484H202.313C202.41 8.8027 202.488 11.0394 202.488 12.4225C203.516 9.78992 206.01 7.6458 210.2 7.63037V14.0576C205.29 13.9393 202.488 15.3276 202.488 21.7703V32.4549H195.803L195.844 15.0757Z" fill="white"/>
<path d="M51.2991 32.2236H28.1045L31.0045 26.4133L46.6715 26.7064L37.0615 14.253L39.946 8.46851L53.87 27.0509L51.2991 32.2236Z" fill="#FE7912"/>
<path d="M18.207 32.2442L33.6735 0.0771484H39.638L24.2126 32.2442H18.207Z" fill="#FE7912"/>
<path d="M6.54518 0H29.7398L26.845 5.81022L11.1728 5.51199L20.7828 17.9654L17.924 23.7653L4 5.16235L6.54518 0Z" fill="#FE7912"/>
</g>
<defs>
<filter id="filter0_d_5107_4" x="0" y="0" width="214.2" height="41" filterUnits="userSpaceOnUse" color-interpolation-filters="sRGB">
<feFlood flood-opacity="0" result="BackgroundImageFix"/>
<feColorMatrix in="SourceAlpha" type="matrix" values="0 0 0 0 0 0 0 0 0 0 0 0 0 0 0 0 0 0 127 0" result="hardAlpha"/>
<feOffset dy="4"/>
<feGaussianBlur stdDeviation="2"/>
<feComposite in2="hardAlpha" operator="out"/>
<feColorMatrix type="matrix" values="0 0 0 0 0 0 0 0 0 0 0 0 0 0 0 0 0 0 0.25 0"/>
<feBlend mode="normal" in2="BackgroundImageFix" result="effect1_dropShadow_5107_4"/>
<feBlend mode="normal" in="SourceGraphic" in2="effect1_dropShadow_5107_4" result="shape"/>
</filter>
</defs>
</svg>
