<svg width="644" height="169" viewBox="0 0 644 169" fill="none" xmlns="http://www.w3.org/2000/svg">
<path d="M644 1V113L10.5 113C4.70103 113 0 108.299 0 102.5V11.5C0 5.70101 4.70101 1 10.5 1L644 1Z" fill="#FFC107"/>
<rect x="483" width="113" height="241.5" transform="rotate(90 483 0)" fill="#2650A2"/>
<path d="M633.5 -2.61701e-07C639.299 -1.17168e-07 644 4.70101 644 10.5L644 102.5C644 108.299 639.299 113 633.5 113L483 113L483 -4.01275e-06L633.5 -2.61701e-07Z" fill="#28A745"/>
<path d="M241.5 0L241.5 113L161 113L161 -1.97643e-06L241.5 0Z" fill="#FE7912"/>
<path d="M28.1715 150.469V159H27.0582V150.469H28.1715ZM30.9137 150.469V151.395H24.3219V150.469H30.9137ZM38.7336 154.465V155.004C38.7336 155.645 38.6535 156.219 38.4934 156.727C38.3332 157.234 38.1027 157.666 37.802 158.021C37.5012 158.377 37.1398 158.648 36.718 158.836C36.3 159.023 35.8313 159.117 35.3117 159.117C34.8078 159.117 34.3449 159.023 33.923 158.836C33.5051 158.648 33.1418 158.377 32.8332 158.021C32.5285 157.666 32.2922 157.234 32.1242 156.727C31.9563 156.219 31.8723 155.645 31.8723 155.004V154.465C31.8723 153.824 31.9543 153.252 32.1184 152.748C32.2863 152.24 32.5227 151.809 32.8273 151.453C33.132 151.094 33.4934 150.82 33.9113 150.633C34.3332 150.445 34.7961 150.352 35.3 150.352C35.8195 150.352 36.2883 150.445 36.7063 150.633C37.1281 150.82 37.4895 151.094 37.7902 151.453C38.0949 151.809 38.3273 152.24 38.4875 152.748C38.6516 153.252 38.7336 153.824 38.7336 154.465ZM37.6145 155.004V154.453C37.6145 153.945 37.5617 153.496 37.4563 153.105C37.3547 152.715 37.2043 152.387 37.0051 152.121C36.8059 151.855 36.5617 151.654 36.2727 151.518C35.9875 151.381 35.6633 151.312 35.3 151.312C34.9484 151.312 34.6301 151.381 34.3449 151.518C34.0637 151.654 33.8215 151.855 33.6184 152.121C33.4191 152.387 33.2648 152.715 33.1555 153.105C33.0461 153.496 32.9914 153.945 32.9914 154.453V155.004C32.9914 155.516 33.0461 155.969 33.1555 156.363C33.2648 156.754 33.4211 157.084 33.6242 157.354C33.8313 157.619 34.0754 157.82 34.3566 157.957C34.6418 158.094 34.9602 158.162 35.3117 158.162C35.6789 158.162 36.0051 158.094 36.2902 157.957C36.5754 157.82 36.8156 157.619 37.0109 157.354C37.2102 157.084 37.3605 156.754 37.4621 156.363C37.5637 155.969 37.6145 155.516 37.6145 155.004ZM46.0121 159H44.2309L44.2426 158.08H46.0121C46.6215 158.08 47.1293 157.953 47.5355 157.699C47.9418 157.441 48.2465 157.082 48.4496 156.621C48.6566 156.156 48.7602 155.613 48.7602 154.992V154.471C48.7602 153.982 48.7016 153.549 48.5844 153.17C48.4672 152.787 48.2953 152.465 48.0688 152.203C47.8422 151.938 47.5648 151.736 47.2367 151.6C46.9125 151.463 46.5395 151.395 46.1176 151.395H44.1957V150.469H46.1176C46.6762 150.469 47.1859 150.562 47.6469 150.75C48.1078 150.934 48.5043 151.201 48.8363 151.553C49.1723 151.9 49.4301 152.322 49.6098 152.818C49.7895 153.311 49.8793 153.865 49.8793 154.482V154.992C49.8793 155.609 49.7895 156.166 49.6098 156.662C49.4301 157.154 49.1703 157.574 48.8305 157.922C48.4945 158.27 48.0883 158.537 47.6117 158.725C47.1391 158.908 46.6059 159 46.0121 159ZM44.8344 150.469V159H43.7035V150.469H44.8344ZM58.2969 154.465V155.004C58.2969 155.645 58.2168 156.219 58.0566 156.727C57.8965 157.234 57.666 157.666 57.3652 158.021C57.0645 158.377 56.7031 158.648 56.2813 158.836C55.8633 159.023 55.3945 159.117 54.875 159.117C54.3711 159.117 53.9082 159.023 53.4863 158.836C53.0684 158.648 52.7051 158.377 52.3965 158.021C52.0918 157.666 51.8555 157.234 51.6875 156.727C51.5195 156.219 51.4355 155.645 51.4355 155.004V154.465C51.4355 153.824 51.5176 153.252 51.6816 152.748C51.8496 152.24 52.0859 151.809 52.3906 151.453C52.6953 151.094 53.0566 150.82 53.4746 150.633C53.8965 150.445 54.3594 150.352 54.8633 150.352C55.3828 150.352 55.8516 150.445 56.2695 150.633C56.6914 150.82 57.0527 151.094 57.3535 151.453C57.6582 151.809 57.8906 152.24 58.0508 152.748C58.2148 153.252 58.2969 153.824 58.2969 154.465ZM57.1777 155.004V154.453C57.1777 153.945 57.125 153.496 57.0195 153.105C56.918 152.715 56.7676 152.387 56.5684 152.121C56.3691 151.855 56.125 151.654 55.8359 151.518C55.5508 151.381 55.2266 151.312 54.8633 151.312C54.5117 151.312 54.1934 151.381 53.9082 151.518C53.627 151.654 53.3848 151.855 53.1816 152.121C52.9824 152.387 52.8281 152.715 52.7188 153.105C52.6094 153.496 52.5547 153.945 52.5547 154.453V155.004C52.5547 155.516 52.6094 155.969 52.7188 156.363C52.8281 156.754 52.9844 157.084 53.1875 157.354C53.3945 157.619 53.6387 157.82 53.9199 157.957C54.2051 158.094 54.5234 158.162 54.875 158.162C55.2422 158.162 55.5684 158.094 55.8535 157.957C56.1387 157.82 56.3789 157.619 56.5742 157.354C56.7734 157.084 56.9238 156.754 57.0254 156.363C57.127 155.969 57.1777 155.516 57.1777 155.004Z" fill="#1D262D"/>
<rect y="145.667" width="16" height="17.5" fill="#FFC107"/>
<path d="M131.881 159H130.1L130.111 158.08H131.881C132.49 158.08 132.998 157.953 133.404 157.699C133.811 157.441 134.115 157.082 134.318 156.621C134.525 156.156 134.629 155.613 134.629 154.992V154.471C134.629 153.982 134.57 153.549 134.453 153.17C134.336 152.787 134.164 152.465 133.938 152.203C133.711 151.938 133.434 151.736 133.105 151.6C132.781 151.463 132.408 151.395 131.986 151.395H130.064V150.469H131.986C132.545 150.469 133.055 150.562 133.516 150.75C133.977 150.934 134.373 151.201 134.705 151.553C135.041 151.9 135.299 152.322 135.479 152.818C135.658 153.311 135.748 153.865 135.748 154.482V154.992C135.748 155.609 135.658 156.166 135.479 156.662C135.299 157.154 135.039 157.574 134.699 157.922C134.363 158.27 133.957 158.537 133.48 158.725C133.008 158.908 132.475 159 131.881 159ZM130.703 150.469V159H129.572V150.469H130.703ZM143.017 158.08V159H138.5V158.08H143.017ZM138.728 150.469V159H137.597V150.469H138.728ZM142.42 154.137V155.057H138.5V154.137H142.42ZM142.959 150.469V151.395H138.5V150.469H142.959ZM147.321 157.705L149.835 150.469H151.06L147.902 159H147.029L147.321 157.705ZM144.972 150.469L147.462 157.705L147.773 159H146.9L143.747 150.469H144.972ZM157.778 158.08V159H153.261V158.08H157.778ZM153.489 150.469V159H152.358V150.469H153.489ZM157.18 154.137V155.057H153.261V154.137H157.18ZM157.72 150.469V151.395H153.261V150.469H157.72ZM164.502 158.08V159H160.237V158.08H164.502ZM160.459 150.469V159H159.329V150.469H160.459ZM172.129 154.465V155.004C172.129 155.645 172.049 156.219 171.889 156.727C171.729 157.234 171.498 157.666 171.197 158.021C170.896 158.377 170.535 158.648 170.113 158.836C169.695 159.023 169.227 159.117 168.707 159.117C168.203 159.117 167.74 159.023 167.318 158.836C166.9 158.648 166.537 158.377 166.229 158.021C165.924 157.666 165.688 157.234 165.52 156.727C165.352 156.219 165.268 155.645 165.268 155.004V154.465C165.268 153.824 165.35 153.252 165.514 152.748C165.682 152.24 165.918 151.809 166.223 151.453C166.527 151.094 166.889 150.82 167.307 150.633C167.729 150.445 168.191 150.352 168.695 150.352C169.215 150.352 169.684 150.445 170.102 150.633C170.523 150.82 170.885 151.094 171.186 151.453C171.49 151.809 171.723 152.24 171.883 152.748C172.047 153.252 172.129 153.824 172.129 154.465ZM171.01 155.004V154.453C171.01 153.945 170.957 153.496 170.852 153.105C170.75 152.715 170.6 152.387 170.4 152.121C170.201 151.855 169.957 151.654 169.668 151.518C169.383 151.381 169.059 151.312 168.695 151.312C168.344 151.312 168.025 151.381 167.74 151.518C167.459 151.654 167.217 151.855 167.014 152.121C166.814 152.387 166.66 152.715 166.551 153.105C166.441 153.496 166.387 153.945 166.387 154.453V155.004C166.387 155.516 166.441 155.969 166.551 156.363C166.66 156.754 166.816 157.084 167.02 157.354C167.227 157.619 167.471 157.82 167.752 157.957C168.037 158.094 168.355 158.162 168.707 158.162C169.074 158.162 169.4 158.094 169.686 157.957C169.971 157.82 170.211 157.619 170.406 157.354C170.605 157.084 170.756 156.754 170.857 156.363C170.959 155.969 171.01 155.516 171.01 155.004ZM177.119 155.654H174.839V154.734H177.119C177.56 154.734 177.918 154.664 178.191 154.523C178.464 154.383 178.664 154.188 178.789 153.938C178.918 153.688 178.982 153.402 178.982 153.082C178.982 152.789 178.918 152.514 178.789 152.256C178.664 151.998 178.464 151.791 178.191 151.635C177.918 151.475 177.56 151.395 177.119 151.395H175.103V159H173.972V150.469H177.119C177.763 150.469 178.308 150.58 178.754 150.803C179.199 151.025 179.537 151.334 179.767 151.729C179.998 152.119 180.113 152.566 180.113 153.07C180.113 153.617 179.998 154.084 179.767 154.471C179.537 154.857 179.199 155.152 178.754 155.355C178.308 155.555 177.763 155.654 177.119 155.654ZM182.05 150.469H183.146L185.941 157.424L188.73 150.469H189.831L186.362 159H185.507L182.05 150.469ZM181.693 150.469H182.659L182.818 155.672V159H181.693V150.469ZM189.216 150.469H190.183V159H189.058V155.672L189.216 150.469ZM197.739 158.08V159H193.221V158.08H197.739ZM193.45 150.469V159H192.319V150.469H193.45ZM197.141 154.137V155.057H193.221V154.137H197.141ZM197.68 150.469V151.395H193.221V150.469H197.68ZM205.852 150.469V159H204.715L200.42 152.42V159H199.289V150.469H200.42L204.733 157.066V150.469H205.852ZM210.982 150.469V159H209.869V150.469H210.982ZM213.725 150.469V151.395H207.133V150.469H213.725Z" fill="#1D262D"/>
<rect x="105" y="145.667" width="16" height="17.5" fill="#FE7912"/>
<path d="M290.961 150.469V159H289.848V150.469H290.961ZM293.704 150.469V151.395H287.112V150.469H293.704ZM300.539 158.08V159H296.021V158.08H300.539ZM296.25 150.469V159H295.119V150.469H296.25ZM299.941 154.137V155.057H296.021V154.137H299.941ZM300.48 150.469V151.395H296.021V150.469H300.48ZM306.636 156.844C306.636 156.645 306.605 156.469 306.543 156.316C306.484 156.16 306.379 156.02 306.226 155.895C306.078 155.77 305.871 155.65 305.605 155.537C305.343 155.424 305.011 155.309 304.609 155.191C304.187 155.066 303.806 154.928 303.466 154.775C303.127 154.619 302.836 154.441 302.593 154.242C302.351 154.043 302.166 153.814 302.037 153.557C301.908 153.299 301.843 153.004 301.843 152.672C301.843 152.34 301.912 152.033 302.048 151.752C302.185 151.471 302.38 151.227 302.634 151.02C302.892 150.809 303.199 150.645 303.554 150.527C303.91 150.41 304.306 150.352 304.744 150.352C305.384 150.352 305.927 150.475 306.373 150.721C306.822 150.963 307.164 151.281 307.398 151.676C307.632 152.066 307.75 152.484 307.75 152.93H306.625C306.625 152.609 306.556 152.326 306.42 152.08C306.283 151.83 306.076 151.635 305.798 151.494C305.521 151.35 305.17 151.277 304.744 151.277C304.341 151.277 304.009 151.338 303.748 151.459C303.486 151.58 303.291 151.744 303.162 151.951C303.037 152.158 302.974 152.395 302.974 152.66C302.974 152.84 303.011 153.004 303.086 153.152C303.164 153.297 303.283 153.432 303.443 153.557C303.607 153.682 303.814 153.797 304.064 153.902C304.318 154.008 304.621 154.109 304.972 154.207C305.457 154.344 305.875 154.496 306.226 154.664C306.578 154.832 306.867 155.021 307.093 155.232C307.324 155.439 307.494 155.676 307.603 155.941C307.716 156.203 307.773 156.5 307.773 156.832C307.773 157.18 307.703 157.494 307.562 157.775C307.421 158.057 307.22 158.297 306.959 158.496C306.697 158.695 306.382 158.85 306.015 158.959C305.652 159.064 305.246 159.117 304.796 159.117C304.402 159.117 304.013 159.062 303.63 158.953C303.252 158.844 302.906 158.68 302.593 158.461C302.285 158.242 302.037 157.973 301.849 157.652C301.666 157.328 301.574 156.953 301.574 156.527H302.699C302.699 156.82 302.755 157.072 302.869 157.283C302.982 157.49 303.136 157.662 303.332 157.799C303.531 157.936 303.755 158.037 304.005 158.104C304.259 158.166 304.523 158.197 304.796 158.197C305.191 158.197 305.525 158.143 305.798 158.033C306.072 157.924 306.279 157.768 306.42 157.564C306.564 157.361 306.636 157.121 306.636 156.844ZM312.517 150.469V159H311.404V150.469H312.517ZM315.259 150.469V151.395H308.667V150.469H315.259ZM317.887 150.469V159H316.757V150.469H317.887ZM326.657 150.469V159H325.52L321.225 152.42V159H320.094V150.469H321.225L325.537 157.066V150.469H326.657ZM335.115 154.752V157.875C335.01 158.031 334.842 158.207 334.611 158.402C334.381 158.594 334.062 158.762 333.656 158.906C333.254 159.047 332.734 159.117 332.098 159.117C331.578 159.117 331.1 159.027 330.662 158.848C330.229 158.664 329.852 158.398 329.531 158.051C329.215 157.699 328.969 157.273 328.793 156.773C328.621 156.27 328.535 155.699 328.535 155.062V154.4C328.535 153.764 328.609 153.195 328.758 152.695C328.91 152.195 329.133 151.771 329.426 151.424C329.719 151.072 330.078 150.807 330.504 150.627C330.93 150.443 331.418 150.352 331.969 150.352C332.621 150.352 333.166 150.465 333.604 150.691C334.045 150.914 334.389 151.223 334.635 151.617C334.885 152.012 335.045 152.461 335.115 152.965H333.984C333.934 152.656 333.832 152.375 333.68 152.121C333.531 151.867 333.318 151.664 333.041 151.512C332.764 151.355 332.406 151.277 331.969 151.277C331.574 151.277 331.232 151.35 330.943 151.494C330.654 151.639 330.416 151.846 330.229 152.115C330.041 152.385 329.9 152.711 329.807 153.094C329.717 153.477 329.672 153.908 329.672 154.389V155.062C329.672 155.555 329.729 155.994 329.842 156.381C329.959 156.768 330.125 157.098 330.34 157.371C330.555 157.641 330.811 157.846 331.107 157.986C331.408 158.127 331.74 158.197 332.104 158.197C332.506 158.197 332.832 158.164 333.082 158.098C333.332 158.027 333.527 157.945 333.668 157.852C333.809 157.754 333.916 157.662 333.99 157.576V155.666H332.016V154.752H335.115Z" fill="#1D262D"/>
<rect x="260" y="145.667" width="16" height="17.5" fill="#2650A2"/>
<path d="M415.554 156.287H416.679C416.62 156.826 416.466 157.309 416.216 157.734C415.966 158.16 415.613 158.498 415.155 158.748C414.698 158.994 414.128 159.117 413.445 159.117C412.945 159.117 412.489 159.023 412.079 158.836C411.673 158.648 411.323 158.383 411.03 158.039C410.738 157.691 410.511 157.275 410.351 156.791C410.195 156.303 410.116 155.76 410.116 155.162V154.312C410.116 153.715 410.195 153.174 410.351 152.689C410.511 152.201 410.739 151.783 411.036 151.436C411.337 151.088 411.698 150.82 412.12 150.633C412.542 150.445 413.017 150.352 413.544 150.352C414.189 150.352 414.734 150.473 415.179 150.715C415.624 150.957 415.97 151.293 416.216 151.723C416.466 152.148 416.62 152.643 416.679 153.205H415.554C415.499 152.807 415.398 152.465 415.249 152.18C415.101 151.891 414.89 151.668 414.616 151.512C414.343 151.355 413.986 151.277 413.544 151.277C413.165 151.277 412.831 151.35 412.542 151.494C412.257 151.639 412.017 151.844 411.821 152.109C411.63 152.375 411.486 152.693 411.388 153.064C411.29 153.436 411.241 153.848 411.241 154.301V155.162C411.241 155.58 411.284 155.973 411.37 156.34C411.46 156.707 411.595 157.029 411.775 157.307C411.954 157.584 412.183 157.803 412.46 157.963C412.738 158.119 413.066 158.197 413.445 158.197C413.925 158.197 414.308 158.121 414.593 157.969C414.878 157.816 415.093 157.598 415.238 157.312C415.386 157.027 415.491 156.686 415.554 156.287ZM424.938 154.465V155.004C424.938 155.645 424.858 156.219 424.698 156.727C424.538 157.234 424.307 157.666 424.007 158.021C423.706 158.377 423.345 158.648 422.923 158.836C422.505 159.023 422.036 159.117 421.516 159.117C421.013 159.117 420.55 159.023 420.128 158.836C419.71 158.648 419.346 158.377 419.038 158.021C418.733 157.666 418.497 157.234 418.329 156.727C418.161 156.219 418.077 155.645 418.077 155.004V154.465C418.077 153.824 418.159 153.252 418.323 152.748C418.491 152.24 418.727 151.809 419.032 151.453C419.337 151.094 419.698 150.82 420.116 150.633C420.538 150.445 421.001 150.352 421.505 150.352C422.024 150.352 422.493 150.445 422.911 150.633C423.333 150.82 423.694 151.094 423.995 151.453C424.3 151.809 424.532 152.24 424.692 152.748C424.856 153.252 424.938 153.824 424.938 154.465ZM423.819 155.004V154.453C423.819 153.945 423.766 153.496 423.661 153.105C423.559 152.715 423.409 152.387 423.21 152.121C423.011 151.855 422.766 151.654 422.477 151.518C422.192 151.381 421.868 151.312 421.505 151.312C421.153 151.312 420.835 151.381 420.55 151.518C420.268 151.654 420.026 151.855 419.823 152.121C419.624 152.387 419.47 152.715 419.36 153.105C419.251 153.496 419.196 153.945 419.196 154.453V155.004C419.196 155.516 419.251 155.969 419.36 156.363C419.47 156.754 419.626 157.084 419.829 157.354C420.036 157.619 420.28 157.82 420.561 157.957C420.846 158.094 421.165 158.162 421.516 158.162C421.884 158.162 422.21 158.094 422.495 157.957C422.78 157.82 423.02 157.619 423.216 157.354C423.415 157.084 423.565 156.754 423.667 156.363C423.768 155.969 423.819 155.516 423.819 155.004ZM427.139 150.469H428.235L431.03 157.424L433.819 150.469H434.92L431.452 159H430.596L427.139 150.469ZM426.782 150.469H427.748L427.907 155.672V159H426.782V150.469ZM434.305 150.469H435.272V159H434.147V155.672L434.305 150.469ZM440.555 155.654H438.275V154.734H440.555C440.996 154.734 441.354 154.664 441.627 154.523C441.9 154.383 442.1 154.188 442.225 153.938C442.354 153.688 442.418 153.402 442.418 153.082C442.418 152.789 442.354 152.514 442.225 152.256C442.1 151.998 441.9 151.791 441.627 151.635C441.354 151.475 440.996 151.395 440.555 151.395H438.539V159H437.408V150.469H440.555C441.199 150.469 441.744 150.58 442.189 150.803C442.635 151.025 442.973 151.334 443.203 151.729C443.434 152.119 443.549 152.566 443.549 153.07C443.549 153.617 443.434 154.084 443.203 154.471C442.973 154.857 442.635 155.152 442.189 155.355C441.744 155.555 441.199 155.654 440.555 155.654ZM450.302 158.08V159H446.037V158.08H450.302ZM446.259 150.469V159H445.129V150.469H446.259ZM457.167 158.08V159H452.65V158.08H457.167ZM452.878 150.469V159H451.747V150.469H452.878ZM456.57 154.137V155.057H452.65V154.137H456.57ZM457.109 150.469V151.395H452.65V150.469H457.109ZM461.987 150.469V159H460.874V150.469H461.987ZM464.729 150.469V151.395H458.138V150.469H464.729ZM471.565 158.08V159H467.047V158.08H471.565ZM467.276 150.469V159H466.145V150.469H467.276ZM470.967 154.137V155.057H467.047V154.137H470.967ZM471.506 150.469V151.395H467.047V150.469H471.506ZM475.424 159H473.643L473.654 158.08H475.424C476.033 158.08 476.541 157.953 476.947 157.699C477.354 157.441 477.658 157.082 477.861 156.621C478.068 156.156 478.172 155.613 478.172 154.992V154.471C478.172 153.982 478.113 153.549 477.996 153.17C477.879 152.787 477.707 152.465 477.48 152.203C477.254 151.938 476.977 151.736 476.648 151.6C476.324 151.463 475.951 151.395 475.529 151.395H473.607V150.469H475.529C476.088 150.469 476.598 150.562 477.059 150.75C477.52 150.934 477.916 151.201 478.248 151.553C478.584 151.9 478.842 152.322 479.021 152.818C479.201 153.311 479.291 153.865 479.291 154.482V154.992C479.291 155.609 479.201 156.166 479.021 156.662C478.842 157.154 478.582 157.574 478.242 157.922C477.906 158.27 477.5 158.537 477.023 158.725C476.551 158.908 476.018 159 475.424 159ZM474.246 150.469V159H473.115V150.469H474.246Z" fill="#1D262D"/>
<rect x="382" y="145.667" width="16" height="17.5" fill="#28A745"/>
</svg>
