<svg width="31" height="50" viewBox="0 0 31 50" fill="none" xmlns="http://www.w3.org/2000/svg">
<path d="M10.9658 25.4819H15.1128C16.5786 25.4819 17.7847 25.2314 18.731 24.7305C19.6958 24.2109 20.4102 23.5059 20.874 22.6152C21.3564 21.7061 21.5977 20.6577 21.5977 19.4702C21.5977 18.3013 21.3843 17.29 20.9575 16.4365C20.5308 15.5645 19.8813 14.8965 19.0093 14.4326C18.1558 13.9502 17.061 13.709 15.7251 13.709C14.6489 13.709 13.6562 13.9224 12.7471 14.3491C11.8564 14.7759 11.1421 15.3882 10.604 16.186C10.0845 16.9653 9.82471 17.9023 9.82471 18.9971H2.44922C2.44922 16.8076 3.02441 14.8872 4.1748 13.2358C5.34375 11.5659 6.9209 10.2578 8.90625 9.31152C10.8916 8.36523 13.1089 7.89209 15.5581 7.89209C18.23 7.89209 20.5679 8.3374 22.5718 9.22803C24.5942 10.1001 26.1621 11.3896 27.2754 13.0967C28.4072 14.8037 28.9731 16.9189 28.9731 19.4424C28.9731 20.6484 28.6855 21.8545 28.1104 23.0605C27.5537 24.248 26.728 25.3242 25.6333 26.2891C24.5571 27.2354 23.2305 28.0054 21.6533 28.5991C20.0947 29.1743 18.3042 29.4619 16.2817 29.4619H10.9658V25.4819ZM10.9658 31.1597V27.2354H16.2817C18.564 27.2354 20.54 27.5044 22.21 28.0425C23.8984 28.562 25.29 29.3042 26.3848 30.269C27.4795 31.2153 28.2866 32.3193 28.8062 33.5811C29.3442 34.8428 29.6133 36.1973 29.6133 37.6445C29.6133 39.5371 29.2607 41.2256 28.5557 42.71C27.8506 44.1758 26.8579 45.4189 25.5776 46.4395C24.3159 47.46 22.8315 48.2393 21.1245 48.7773C19.4175 49.2969 17.5713 49.5566 15.5859 49.5566C13.8604 49.5566 12.1812 49.3247 10.5483 48.8608C8.93408 48.3784 7.47754 47.6641 6.17871 46.7178C4.87988 45.7529 3.8501 44.5469 3.08936 43.0996C2.32861 41.6338 1.94824 39.936 1.94824 38.0063H9.32373C9.32373 39.1196 9.59277 40.1123 10.1309 40.9844C10.6875 41.8564 11.4482 42.543 12.4131 43.0439C13.3965 43.5264 14.5005 43.7676 15.7251 43.7676C17.0796 43.7676 18.2393 43.5264 19.2041 43.0439C20.1875 42.543 20.939 41.8379 21.4585 40.9287C21.978 40.001 22.2378 38.897 22.2378 37.6167C22.2378 36.0952 21.9502 34.8613 21.375 33.915C20.7998 32.9688 19.9741 32.2729 18.8979 31.8276C17.8403 31.3823 16.5786 31.1597 15.1128 31.1597H10.9658Z" fill="#2650A2"/>
</svg>
