<svg width="31" height="49" viewBox="0 0 31 49" fill="none" xmlns="http://www.w3.org/2000/svg">
<path d="M30.3647 43.2109V49H2.92236V44.0459L16.0869 29.8237C17.46 28.2651 18.5454 26.9106 19.3433 25.7603C20.1411 24.6099 20.707 23.5708 21.041 22.6431C21.3936 21.6968 21.5698 20.7969 21.5698 19.9434C21.5698 18.7002 21.3472 17.6147 20.9019 16.687C20.4565 15.7407 19.8071 15.0078 18.9536 14.4883C18.1187 13.9687 17.0889 13.709 15.8643 13.709C14.5098 13.709 13.3501 14.0244 12.3853 14.6553C11.439 15.2676 10.7153 16.1211 10.2144 17.2158C9.73193 18.3105 9.49072 19.563 9.49072 20.9731H2.11523C2.11523 18.5796 2.67188 16.3994 3.78516 14.4326C4.89844 12.4473 6.49414 10.8608 8.57227 9.67334C10.6504 8.48584 13.1182 7.89209 15.9756 7.89209C18.7588 7.89209 21.1152 8.35596 23.0449 9.28369C24.9746 10.1929 26.4404 11.4917 27.4424 13.1802C28.4443 14.8687 28.9453 16.8818 28.9453 19.2197C28.9453 20.5186 28.7319 21.7988 28.3052 23.0605C27.8784 24.3223 27.2754 25.5747 26.4961 26.8179C25.7354 28.0425 24.8262 29.2856 23.7686 30.5474C22.7109 31.8091 21.5327 33.0986 20.2339 34.416L12.3296 43.2109H30.3647Z" fill="#FFC107"/>
</svg>
